<?xml version="1.0" encoding="UTF-8"?>
<svg id="Camada_2" data-name="Camada 2" xmlns="http://www.w3.org/2000/svg" viewBox="0 0 136.82 36.64">
  <defs>
    <style>
      .cls-1, .cls-2 {
        fill: #13271a;
      }

      .cls-2, .cls-3 {
        fill-rule: evenodd;
      }

      .cls-4, .cls-3 {
        fill: #5ab473;
      }
    </style>
  </defs>
  <g id="Camada_1-2" data-name="Camada 1">
    <g>
      <g>
        <path class="cls-2" d="M23.31,14.05c1.4-.81,3.13-1.4,5.16-1.76.24-2.3.24-4.38.17-6.03-2.05.3-4.12.78-6.18,1.59-.84.33-1.59.7-2.28,1.1l2.93.84s.32,1.77.2,4.26Z"/>
        <path class="cls-3" d="M22.69,18.28c1.57-.43,3.29-.64,4.86-.71.14-.55.26-1.11.38-1.68.17-.85.31-1.68.41-2.5-2.27.32-3.96.77-5.05,1.13-.08,1.15-.26,2.43-.59,3.75Z"/>
        <path class="cls-3" d="M20.8,22.86c1.31-.09,2.84-.04,4.87.04.61-1.31,1.13-2.7,1.56-4.16-1.91,0-3.51.17-4.78.42-.38,1.24-.91,2.5-1.64,3.71Z"/>
        <path class="cls-2" d="M8.45,23.73c-1.28.07-2.88.22-4.8.49.82,1.54,1.78,2.95,2.86,4.25,2.11,2.51,4.72,4.56,7.83,6.11,3.11-1.55,5.72-3.6,7.83-6.11,1.09-1.3,2.04-2.71,2.86-4.25-1.92-.27-3.52-.42-4.79-.49-1.18,1.64-2.78,3.14-4.96,4.29h0c-.3.15-.6.3-.92.44h0s0,0,0,0c0,0,0,0,0,0h-.01s0,0,0,0c0,0,0,0,0,0-.32-.14-.62-.29-.91-.44-2.18-1.15-3.78-2.65-4.96-4.29Z"/>
        <path class="cls-3" d="M6.23,19.16c-1.28-.24-2.87-.42-4.78-.42.42,1.43.92,2.78,1.5,4.06,2.06-.08,3.59-.11,4.88,0-.71-1.18-1.23-2.42-1.61-3.64Z"/>
        <path class="cls-3" d="M5.41,14.52c-1.09-.36-2.79-.81-5.06-1.13.11.81.24,1.65.41,2.5.11.57.24,1.13.38,1.68,1.57.07,3.29.28,4.85.71-.33-1.32-.51-2.61-.58-3.75Z"/>
        <path class="cls-2" d="M6.22,7.84c-2.06-.81-4.13-1.29-6.19-1.59-.07,1.65-.05,3.73.18,6.03,2.02.36,3.75.95,5.16,1.76-.11-2.49.2-4.26.2-4.26l2.93-.84c-.68-.41-1.44-.78-2.28-1.1Z"/>
        <path class="cls-4" d="M14.78,4.85c-.03.08,3.35-1.53,1.98-3.68,0,0,.16.34-.29.77,0,0-1.13-2.6-5.19-1.77,0,0,1.55.17,2.02.73,0,0-5.06-.71-5.34,3.82,0,0,.42-1,1.24-1.31,0,0-1,4.32-4.05,2.29,0,0,3.32,2.64,4.89-.73,0,0-.48,1,.17,2.59,0,0,.52-3.87,3.59-2.66,0,0-1.37-2.32-3.93-.55,0,0,1.08-1.96,2.85-2.04,1.76-.08,1.43,2,1.43,2,0,0,1.65-1.25-.11-3.3,0,0,2,.92.72,3.85Z"/>
        <path class="cls-4" d="M14.26,5.83c.39,0,.76.05,1.12.14l.27-1.31-1.4-.93-1.4.93.27,1.31c.36-.09.74-.14,1.12-.14Z"/>
        <path class="cls-1" d="M20.01,12.17c0-3.17-2.57-5.74-5.74-5.74s-5.74,2.57-5.74,5.74v3.73l.8,1.32-.36,1.73c-.08.37-.05.76.09,1.12.45,1.17,1.67,3.85,3.97,5.39l-.7-9.01s-2.16-.81-2.34-2.67l3.18,1.39v2.34l1.1,2.6,1.1-2.6v-2.34l3.18-1.39c-.18,1.87-2.34,2.67-2.34,2.67l-.7,9.01c2.3-1.54,3.52-4.22,3.97-5.39.14-.36.17-.74.09-1.12l-.36-1.73.8-1.32v-3.73ZM18.95,19.92s-.02.09-.04.16c-.02.07-.04.15-.08.25-.02.05-.03.1-.05.15-.02.05-.04.11-.06.17-.04.12-.1.24-.15.37-.06.13-.12.27-.19.4-.07.14-.14.28-.22.42-.04.07-.08.14-.12.21-.04.07-.08.14-.13.21-.04.07-.09.14-.13.21-.05.07-.09.14-.14.2-.09.13-.19.26-.29.38-.05.06-.1.12-.15.18-.05.06-.1.11-.14.17-.1.1-.19.2-.28.29-.09.09-.17.16-.25.23-.07.07-.14.12-.2.17-.06.05-.1.08-.13.1-.03.02-.05.04-.05.04,0,0,.01-.02.04-.05.02-.03.06-.07.11-.13.02-.03.05-.06.08-.09.01-.02.03-.03.04-.05.01-.02.03-.04.04-.06.06-.08.13-.17.21-.26.07-.1.15-.2.24-.31.04-.06.08-.11.13-.17.04-.06.09-.12.13-.18.09-.13.18-.25.26-.39.04-.07.09-.13.13-.2.04-.07.09-.14.13-.21.04-.07.09-.14.13-.21.04-.07.09-.14.13-.21.04-.07.08-.14.12-.2.04-.07.08-.14.12-.2.08-.13.15-.26.22-.38.07-.12.13-.24.19-.35.06-.11.11-.21.16-.3.05-.09.09-.17.12-.23.07-.13.11-.2.11-.2,0,0,0,.02-.01.06ZM19.48,11.82s0,.05,0,.08c0,.03,0,.05,0,.07,0,.04,0,.08,0,.11,0,.06,0,.09,0,.09,0,0,0-.03-.01-.09,0-.03,0-.07-.01-.11,0-.02,0-.04,0-.07,0-.02,0-.05-.01-.08,0-.05-.02-.12-.03-.18-.01-.07-.03-.14-.04-.21-.02-.08-.04-.15-.06-.24,0-.04-.02-.08-.04-.13-.01-.04-.03-.09-.04-.13-.03-.09-.06-.18-.09-.28-.02-.05-.04-.09-.06-.14,0-.02-.02-.05-.03-.07,0-.02-.02-.05-.03-.07-.02-.05-.04-.1-.07-.15-.02-.05-.05-.1-.07-.15-.05-.1-.11-.2-.16-.3-.12-.2-.25-.4-.4-.59-.15-.19-.31-.38-.48-.55-.17-.17-.36-.33-.55-.48-.19-.15-.39-.28-.59-.4-.05-.03-.1-.06-.15-.08-.03-.01-.05-.03-.07-.04-.03-.01-.05-.03-.08-.04-.05-.02-.1-.05-.15-.07-.05-.02-.1-.04-.15-.07-.02-.01-.05-.02-.07-.03-.02,0-.05-.02-.07-.03-.05-.02-.1-.04-.14-.06-.1-.03-.19-.07-.28-.09-.04-.01-.09-.03-.13-.04-.04-.01-.09-.03-.13-.04-.08-.02-.16-.04-.24-.06-.08-.02-.15-.03-.21-.04-.07-.01-.13-.02-.18-.03-.03,0-.05,0-.08-.01-.02,0-.05,0-.07,0-.04,0-.08-.01-.11-.01-.06,0-.09-.01-.09-.01,0,0,.03,0,.09,0,.03,0,.07,0,.11,0,.02,0,.04,0,.07,0,.03,0,.05,0,.08,0,.06,0,.12,0,.19,0,.07,0,.14,0,.22.01.04,0,.08,0,.12.01.04,0,.08,0,.13.01.04,0,.09.01.14.02.05,0,.09.02.14.02.05,0,.1.02.15.03.05.01.1.02.15.03.05.01.1.03.15.04.03,0,.05.02.08.02.03,0,.05.02.08.03.05.02.11.04.16.06.05.02.11.04.16.07.03.01.05.02.08.03.03.01.05.03.08.04.05.03.11.05.17.08.11.06.22.12.33.18.05.03.11.06.16.1.05.04.11.07.16.11.21.15.41.32.6.51.18.19.36.39.51.6.04.05.07.11.11.16.04.05.07.11.1.16.07.11.13.22.18.33.03.06.05.11.08.17.01.03.03.05.04.08.01.03.02.06.03.08.02.05.05.11.07.16.02.05.04.11.06.16,0,.03.02.05.03.08,0,.03.02.05.02.08.02.05.03.1.04.15.01.05.02.1.03.15.01.05.02.1.03.15,0,.05.02.1.02.14,0,.05.02.09.02.14,0,.04,0,.09.01.13,0,.04,0,.08.01.12,0,.08,0,.15.01.22,0,.07,0,.13,0,.19Z"/>
      </g>
      <path class="cls-2" d="M75.66,20.61h3.13c.12.89.46,1.52,1.03,1.88.6.42,1.42.63,2.46.63.93,0,1.62-.16,2.1-.49.48-.33.72-.8.72-1.43,0-.95-1.34-1.73-4.02-2.32l-.09-.05s-.12-.03-.36-.09c-1.52-.33-2.53-.67-3.04-1.03-.59-.33-1.01-.8-1.25-1.43-.3-.53-.45-1.22-.45-2.06,0-1.46.5-2.6,1.52-3.44,1.01-.8,2.49-1.21,4.42-1.21,1.82,0,3.22.42,4.2,1.25,1.01.92,1.55,2.13,1.61,3.62h-1.79c-.69,0-1.18-.31-1.48-.94h0c-.15-.3-.36-.55-.63-.76-.54-.39-1.27-.58-2.19-.58s-1.53.16-1.92.49c-.45.33-.67.79-.67,1.38,0,.8.87,1.4,2.59,1.79.51.15.88.24,1.12.27.53.18,1.01.32,1.41.43.4.1.72.19.96.24.42.18.84.36,1.25.54.59.36,1.06.82,1.38,1.38.33.63.49,1.31.49,2.06,0,1.61-.53,2.86-1.61,3.76-1.07.83-2.59,1.25-4.56,1.25s-3.55-.43-4.56-1.3c-1.1-.87-1.7-2.15-1.79-3.84h0ZM97.66,16.86c-.45-.63-1.06-.94-1.83-.94-.84,0-1.48.3-1.92.89-.45.6-.67,1.41-.67,2.46v6.12h-3.04v-15.37h1.52c.42,0,.78.15,1.08.45.3.3.45.66.45,1.07v3.53c.54-.89,1.3-1.46,2.28-1.7.98-.24,1.92-.18,2.81.18.84.35,1.53.92,2.1,1.7.56.77.85,1.85.85,3.22v6.93h-2.99v-6.17c0-.45-.04-.86-.11-1.23-.08-.37-.25-.76-.51-1.14h0ZM103.48,13.51h1.61c.42,0,.77.15,1.07.45.3.3.45.66.45,1.07v10.37h-3.13v-11.89h0ZM116.41,21.73h2.23c-.33,1.25-.95,2.2-1.88,2.86-.92.69-2.09,1.03-3.49,1.03-1.7,0-3.02-.55-3.98-1.66-.95-1.07-1.43-2.61-1.43-4.6s.46-3.4,1.38-4.47c.95-1.1,2.28-1.66,3.98-1.66,1.79,0,3.17.54,4.16,1.61.95,1.1,1.43,2.64,1.43,4.6v.49c0,.15-.02.26-.05.31h-7.73c.03.93.25,1.61.67,2.06.39.48.96.72,1.74.72.5,0,.94-.1,1.29-.31.09-.03.17-.08.25-.16.07-.08.16-.16.24-.25.03-.09.14-.21.34-.35.19-.15.47-.23.83-.23h0ZM111.05,18.24h4.56c-.06-.8-.27-1.4-.63-1.79-.39-.42-.94-.63-1.66-.63-.65,0-1.19.21-1.61.63-.42.42-.64,1.01-.67,1.79h0ZM120.85,10.02h1.61c.42,0,.77.14,1.07.42.3.28.45.63.45,1.05v13.9h-3.13v-15.37h0ZM133.78,9.97h1.52c.42,0,.77.16,1.07.47.3.31.45.66.45,1.05v8.72c0,2.11-.61,3.54-1.83,4.29-1.22.74-2.55,1.12-3.98,1.12-.77,0-1.53-.13-2.28-.38-.74-.25-1.34-.66-1.78-1.23-.87-1.1-1.3-2.61-1.3-4.52s.43-3.38,1.3-4.51c.89-1.16,2.04-1.75,3.44-1.75.74,0,1.4.15,1.97.45.6.35,1.07.82,1.43,1.38v-5.1h0ZM128.69,19.36c0,1.19.22,2.1.67,2.73.45.63,1.09.94,1.92.94s1.43-.31,1.88-.94c.42-.63.63-1.54.63-2.73,0-1.07-.23-1.92-.67-2.55-.48-.59-1.12-.89-1.92-.89s-1.38.31-1.83.94c-.45.59-.67,1.43-.67,2.5Z"/>
      <g>
        <path class="cls-1" d="M34.18,29.7v2.44h3.04v.38h-3.04v2.52h-.42v-5.71h3.82v.38h-3.4Z"/>
        <path class="cls-1" d="M38.17,29.41c0-.18.15-.33.33-.33s.33.15.33.33-.15.33-.33.33-.33-.15-.33-.33ZM38.3,30.77h.41v4.26h-.41v-4.26Z"/>
        <path class="cls-1" d="M42.04,30.74v.4s-.07,0-.1,0c-.95,0-1.51.63-1.51,1.68v2.22h-.41v-4.26h.39v.93c.26-.62.82-.96,1.62-.96Z"/>
        <path class="cls-1" d="M46.32,33h-3.66c.04,1.01.78,1.7,1.8,1.7.54,0,1.04-.2,1.36-.6l.24.27c-.38.46-.96.69-1.61.69-1.29,0-2.19-.9-2.19-2.16s.87-2.16,2.04-2.16,2.03.88,2.03,2.14c0,.03,0,.07,0,.11ZM42.67,32.68h3.26c-.06-.92-.73-1.58-1.63-1.58s-1.57.65-1.63,1.58Z"/>
        <path class="cls-1" d="M53.19,30.77l-1.61,4.26h-.38l-1.44-3.69-1.44,3.69h-.38l-1.61-4.26h.39l1.42,3.8,1.45-3.8h.35l1.44,3.79,1.44-3.79h.38Z"/>
        <path class="cls-1" d="M56.68,32.33v2.7h-.39v-.76c-.27.49-.79.79-1.53.79-.95,0-1.53-.49-1.53-1.21,0-.64.41-1.19,1.59-1.19h1.46v-.34c0-.79-.43-1.21-1.26-1.21-.59,0-1.12.22-1.47.54l-.2-.29c.42-.38,1.04-.6,1.7-.6,1.05,0,1.64.54,1.64,1.59ZM56.28,33.77v-.8h-1.45c-.88,0-1.19.37-1.19.86,0,.55.43.9,1.18.9s1.21-.34,1.46-.95Z"/>
        <path class="cls-1" d="M57.97,28.98h.41v6.05h-.41v-6.05Z"/>
        <path class="cls-1" d="M59.69,28.98h.41v6.05h-.41v-6.05Z"/>
        <path class="cls-1" d="M63.25,29.32h.42v5.71h-.42v-5.71Z"/>
        <path class="cls-1" d="M68.93,32.54v2.49h-.41v-2.45c0-.96-.51-1.47-1.38-1.47-1,0-1.61.64-1.61,1.66v2.27h-.41v-4.26h.39v.92c.29-.6.88-.95,1.69-.95,1.04,0,1.73.61,1.73,1.8Z"/>
        <path class="cls-1" d="M72.32,34.76c-.21.2-.55.3-.87.3-.75,0-1.16-.44-1.16-1.16v-2.78h-.78v-.35h.78v-.93h.41v.93h1.35v.35h-1.35v2.74c0,.55.27.85.79.85.25,0,.49-.08.66-.24l.17.29Z"/>
        <path class="cls-1" d="M76.5,33h-3.66c.04,1.01.78,1.7,1.8,1.7.54,0,1.04-.2,1.36-.6l.24.27c-.38.46-.96.69-1.61.69-1.29,0-2.19-.9-2.19-2.16s.87-2.16,2.04-2.16,2.03.88,2.03,2.14c0,.03,0,.07,0,.11ZM72.85,32.68h3.26c-.06-.92-.73-1.58-1.63-1.58s-1.57.65-1.63,1.58Z"/>
        <path class="cls-1" d="M77.37,28.98h.41v6.05h-.41v-6.05Z"/>
        <path class="cls-1" d="M78.97,29.41c0-.18.15-.33.33-.33s.33.15.33.33-.15.33-.33.33-.33-.15-.33-.33ZM79.1,30.77h.41v4.26h-.41v-4.26Z"/>
        <path class="cls-1" d="M84.66,30.77v3.8c0,1.43-.69,2.07-2.06,2.07-.77,0-1.52-.24-1.95-.68l.22-.31c.42.39,1.04.62,1.72.62,1.13,0,1.66-.52,1.66-1.66v-.72c-.35.62-1,.97-1.77.97-1.21,0-2.12-.86-2.12-2.07s.91-2.06,2.12-2.06c.78,0,1.44.36,1.79.99v-.96h.39ZM84.26,32.8c0-1-.73-1.7-1.74-1.7s-1.74.69-1.74,1.7.73,1.7,1.74,1.7,1.74-.7,1.74-1.7Z"/>
        <path class="cls-1" d="M89.59,33h-3.66c.04,1.01.78,1.7,1.8,1.7.54,0,1.04-.2,1.36-.6l.24.27c-.38.46-.96.69-1.61.69-1.29,0-2.19-.9-2.19-2.16s.87-2.16,2.04-2.16,2.03.88,2.03,2.14c0,.03,0,.07,0,.11ZM85.93,32.68h3.26c-.06-.92-.73-1.58-1.63-1.58s-1.57.65-1.63,1.58Z"/>
        <path class="cls-1" d="M94.27,32.54v2.49h-.41v-2.45c0-.96-.51-1.47-1.38-1.47-1,0-1.61.64-1.61,1.66v2.27h-.41v-4.26h.39v.92c.29-.6.88-.95,1.69-.95,1.04,0,1.73.61,1.73,1.8Z"/>
        <path class="cls-1" d="M97.66,34.76c-.21.2-.55.3-.87.3-.75,0-1.16-.44-1.16-1.16v-2.78h-.78v-.35h.78v-.93h.41v.93h1.35v.35h-1.35v2.74c0,.55.27.85.79.85.25,0,.49-.08.66-.24l.17.29Z"/>
        <path class="cls-1" d="M101.83,33h-3.66c.04,1.01.78,1.7,1.8,1.7.54,0,1.04-.2,1.36-.6l.24.27c-.38.46-.96.69-1.61.69-1.29,0-2.19-.9-2.19-2.16s.87-2.16,2.04-2.16,2.03.88,2.03,2.14c0,.03,0,.07,0,.11ZM98.18,32.68h3.26c-.06-.92-.73-1.58-1.63-1.58s-1.57.65-1.63,1.58Z"/>
        <path class="cls-1" d="M108.19,28.98v6.05h-.4v-1c-.33.66-.98,1.04-1.74,1.04-1.2,0-2.1-.89-2.1-2.16s.9-2.16,2.1-2.16c.76,0,1.39.38,1.74,1.02v-2.78h.41ZM107.78,32.9c0-1.07-.73-1.79-1.71-1.79s-1.71.73-1.71,1.79.73,1.79,1.71,1.79,1.71-.73,1.71-1.79Z"/>
        <path class="cls-1" d="M113.1,33h-3.66c.04,1.01.78,1.7,1.8,1.7.54,0,1.04-.2,1.36-.6l.24.27c-.38.46-.96.69-1.61.69-1.29,0-2.19-.9-2.19-2.16s.87-2.16,2.04-2.16,2.03.88,2.03,2.14c0,.03,0,.07,0,.11ZM109.45,32.68h3.26c-.06-.92-.73-1.58-1.63-1.58s-1.57.65-1.63,1.58Z"/>
        <path class="cls-1" d="M115.8,29.32h.42v5.33h3.29v.38h-3.7v-5.71Z"/>
        <path class="cls-1" d="M123.57,33h-3.66c.04,1.01.78,1.7,1.8,1.7.54,0,1.04-.2,1.36-.6l.24.27c-.38.46-.96.69-1.61.69-1.29,0-2.19-.9-2.19-2.16s.87-2.16,2.04-2.16,2.03.88,2.03,2.14c0,.03,0,.07,0,.11ZM119.91,32.68h3.26c-.06-.92-.73-1.58-1.63-1.58s-1.57.65-1.63,1.58Z"/>
        <path class="cls-1" d="M127.39,32.33v2.7h-.39v-.76c-.27.49-.79.79-1.53.79-.95,0-1.53-.49-1.53-1.21,0-.64.41-1.19,1.59-1.19h1.46v-.34c0-.79-.43-1.21-1.26-1.21-.59,0-1.12.22-1.47.54l-.2-.29c.42-.38,1.04-.6,1.7-.6,1.05,0,1.64.54,1.64,1.59ZM126.98,33.77v-.8h-1.45c-.88,0-1.19.37-1.19.86,0,.55.43.9,1.18.9s1.21-.34,1.46-.95Z"/>
        <path class="cls-1" d="M132.46,28.98v6.05h-.4v-1c-.33.66-.98,1.04-1.74,1.04-1.2,0-2.1-.89-2.1-2.16s.91-2.16,2.1-2.16c.76,0,1.39.38,1.74,1.02v-2.78h.41ZM132.05,32.9c0-1.07-.73-1.79-1.71-1.79s-1.71.73-1.71,1.79.73,1.79,1.71,1.79,1.71-.73,1.71-1.79Z"/>
        <path class="cls-1" d="M133.16,34.51l.19-.33c.33.28.91.51,1.53.51.9,0,1.26-.32,1.26-.8,0-1.24-2.82-.33-2.82-2,0-.64.54-1.17,1.61-1.17.54,0,1.13.16,1.46.42l-.19.33c-.36-.26-.82-.38-1.28-.38-.83,0-1.2.34-1.2.8,0,1.28,2.82.38,2.82,2,0,.69-.6,1.17-1.68,1.17-.7,0-1.37-.24-1.7-.55Z"/>
      </g>
      <path class="cls-3" d="M103.49,10.09h1.61c.42,0,.77.15,1.07.45.3.3.45.66.45,1.07v.94h-3.13v-2.46h0Z"/>
      <g>
        <path class="cls-3" d="M33.93,6.66h1.94c.5,0,.94.17,1.29.51.36.34.54.76.54,1.27v16.8h-3.78V6.66h0Z"/>
        <path class="cls-4" d="M59.97,13.61c-.85-.57-2.12-.86-3.81-.86-1.51,0-2.67.35-3.49,1.04-.73.6-1.15,1.37-1.27,2.31h3.04c.15-.33.39-.56.72-.68.33-.12.71-.18,1.13-.18.39,0,.82.07,1.29.2.47.14.7.43.7.88,0,.61-.67,1-1.99,1.18-.27.03-.51.07-.72.11-.21.05-.39.07-.55.07-1.15.18-2.09.54-2.83,1.09-.74.55-1.11,1.45-1.11,2.72,0,1.36.41,2.34,1.22,2.92.82.59,1.77.89,2.85.89.55,0,1.17-.04,1.88-.12.71-.07,1.38-.28,2.01-.61.6-.3,1.13-.79,1.56-1.47.44-.68.66-1.62.66-2.83v-4.13c0-1.09-.44-1.93-1.31-2.54ZM58.34,20.3c0,.84-.24,1.51-.73,1.99-.48.48-1.15.73-1.99.73-.51,0-.91-.12-1.18-.36-.27-.27-.41-.63-.41-1.09,0-.33.11-.67.32-1,.24-.24.64-.44,1.18-.59,0,0,.35-.08,1.04-.23.75-.18,1.34-.38,1.77-.59v1.13Z"/>
        <path class="cls-4" d="M73.27,10.49c-.3-.31-.66-.47-1.08-.47h-1.53v5.12c-.36-.57-.84-1.04-1.44-1.39-.57-.3-1.23-.45-1.98-.45-1.41,0-2.56.59-3.46,1.76-.87,1.14-1.3,2.65-1.3,4.54s.43,3.43,1.3,4.54c.45.57,1.05.98,1.79,1.23.75.25,1.51.38,2.29.38,1.44,0,2.77-.38,4-1.12,1.23-.75,1.84-2.19,1.84-4.31v-8.77c0-.39-.15-.74-.45-1.05ZM70.03,22.2c-.45.63-1.08.94-1.89.94s-1.48-.31-1.93-.94c-.45-.63-.67-1.55-.67-2.74,0-1.08.22-1.92.67-2.52.45-.63,1.07-.94,1.84-.94s1.45.3,1.93.9c.45.63.68,1.48.68,2.56,0,1.2-.21,2.11-.63,2.74Z"/>
        <path class="cls-4" d="M48.49,14.56c-.99-1.08-2.38-1.62-4.18-1.62s-3.04.56-4,1.66c-.93,1.08-1.39,2.58-1.39,4.49s.48,3.55,1.44,4.63c.96,1.11,2.29,1.66,4,1.66,1.41,0,2.58-.35,3.51-1.04.93-.66,1.56-1.62,1.89-2.88h-2.25c-.36,0-.64.08-.83.23-.2.15-.31.27-.34.36-.09.09-.17.17-.25.25-.08.07-.16.13-.25.16-.36.21-.79.31-1.3.31-.78,0-1.37-.24-1.75-.72-.42-.45-.64-1.14-.68-2.07h7.77c.03-.06.05-.16.05-.31v-.49c0-1.98-.48-3.52-1.44-4.63ZM42.11,17.98c.03-.78.25-1.38.68-1.8.42-.42.96-.63,1.61-.63.72,0,1.27.21,1.66.63.36.39.57.99.63,1.8h-4.58Z"/>
      </g>
    </g>
  </g>
</svg>