<?xml version="1.0" encoding="UTF-8"?>
<svg id="Camada_2" data-name="Camada 2" xmlns="http://www.w3.org/2000/svg" xmlns:xlink="http://www.w3.org/1999/xlink" viewBox="0 0 50.01 60.3">
  <defs>
    <style>
      .cls-1 {
        fill: url(#Sfumatura_senza_nome_119-8);
      }

      .cls-2 {
        fill: url(#Sfumatura_senza_nome_119-6);
      }

      .cls-2, .cls-3, .cls-4, .cls-5, .cls-6, .cls-7, .cls-8 {
        fill-rule: evenodd;
      }

      .cls-3 {
        fill: url(#Sfumatura_senza_nome_119-7);
      }

      .cls-4 {
        fill: url(#Sfumatura_senza_nome_119-3);
      }

      .cls-9 {
        fill: url(#Sfumatura_senza_nome_119-9);
      }

      .cls-5 {
        fill: url(#Sfumatura_senza_nome_119);
      }

      .cls-6 {
        fill: url(#Sfumatura_senza_nome_119-5);
      }

      .cls-7 {
        fill: url(#Sfumatura_senza_nome_119-4);
      }

      .cls-10 {
        fill: url(#Sfumatura_senza_nome_119-10);
      }

      .cls-8 {
        fill: url(#Sfumatura_senza_nome_119-2);
      }
    </style>
    <linearGradient id="Sfumatura_senza_nome_119" data-name="Sfumatura senza nome 119" x1="35.19" y1="17.71" x2="50.01" y2="17.71" gradientUnits="userSpaceOnUse">
      <stop offset="0" stop-color="#e2e9a6"/>
      <stop offset="1" stop-color="#66b32e"/>
    </linearGradient>
    <linearGradient id="Sfumatura_senza_nome_119-2" data-name="Sfumatura senza nome 119" x1="39.57" y1="27.61" x2="49.41" y2="27.61" xlink:href="#Sfumatura_senza_nome_119"/>
    <linearGradient id="Sfumatura_senza_nome_119-3" data-name="Sfumatura senza nome 119" x1="36.28" y1="36.31" x2="47.49" y2="36.31" xlink:href="#Sfumatura_senza_nome_119"/>
    <linearGradient id="Sfumatura_senza_nome_119-4" data-name="Sfumatura senza nome 119" x1="6.37" y1="50.84" x2="43.64" y2="50.84" xlink:href="#Sfumatura_senza_nome_119"/>
    <linearGradient id="Sfumatura_senza_nome_119-5" data-name="Sfumatura senza nome 119" x1="2.53" y1="36.22" x2="13.67" y2="36.22" xlink:href="#Sfumatura_senza_nome_119"/>
    <linearGradient id="Sfumatura_senza_nome_119-6" data-name="Sfumatura senza nome 119" x1=".6" y1="27.61" x2="10.44" y2="27.61" xlink:href="#Sfumatura_senza_nome_119"/>
    <linearGradient id="Sfumatura_senza_nome_119-7" data-name="Sfumatura senza nome 119" x1="0" x2="14.82" xlink:href="#Sfumatura_senza_nome_119"/>
    <linearGradient id="Sfumatura_senza_nome_119-8" data-name="Sfumatura senza nome 119" x1="9" y1="6.59" x2="29.81" y2="6.59" xlink:href="#Sfumatura_senza_nome_119"/>
    <linearGradient id="Sfumatura_senza_nome_119-9" data-name="Sfumatura senza nome 119" x1="22.44" y1="8.46" x2="27.31" y2="8.46" xlink:href="#Sfumatura_senza_nome_119"/>
    <linearGradient id="Sfumatura_senza_nome_119-10" data-name="Sfumatura senza nome 119" x1="14.86" y1="27.8" x2="34.89" y2="27.8" xlink:href="#Sfumatura_senza_nome_119"/>
  </defs>
  <g id="Camada_1-2" data-name="Camada 1">
    <g>
      <path class="cls-5" d="M40.65,24.5c2.45-1.41,5.46-2.44,9-3.07.41-4.01.42-7.64.3-10.51-3.57.52-7.19,1.36-10.77,2.77-1.46.57-2.78,1.22-3.98,1.92l5.1,1.47s.55,3.08.35,7.43Z"/>
      <path class="cls-8" d="M39.57,31.87c2.74-.74,5.74-1.12,8.47-1.24.25-.96.46-1.94.65-2.93.3-1.48.54-2.93.72-4.35-3.96.56-6.91,1.35-8.81,1.97-.14,2-.45,4.24-1.03,6.55Z"/>
      <path class="cls-4" d="M36.28,39.87c2.29-.16,4.95-.08,8.49.08,1.07-2.28,1.97-4.7,2.72-7.26-3.33-.01-6.11.3-8.34.72-.65,2.17-1.59,4.36-2.87,6.46Z"/>
      <path class="cls-7" d="M14.73,41.38c-2.23.12-5.02.39-8.36.85,1.43,2.69,3.1,5.15,4.98,7.41,3.68,4.38,8.23,7.96,13.65,10.66,5.42-2.7,9.97-6.28,13.65-10.66,1.9-2.26,3.56-4.72,4.99-7.41-3.35-.46-6.13-.73-8.36-.85-2.05,2.86-4.85,5.48-8.65,7.48h0c-.52.27-1.05.53-1.6.77h-.01s0,.01,0,.01c0,.01-.01.01-.02.01h-.02s0-.01,0-.01c0-.01-.01-.01-.01-.01-.55-.25-1.08-.5-1.59-.77-3.8-2-6.59-4.62-8.64-7.48Z"/>
      <path class="cls-6" d="M10.87,33.41c-2.23-.42-5.01-.74-8.34-.72.73,2.49,1.6,4.85,2.62,7.08,3.59-.15,6.25-.19,8.52,0-1.25-2.06-2.15-4.22-2.8-6.35Z"/>
      <path class="cls-2" d="M9.43,25.32c-1.9-.62-4.86-1.41-8.83-1.97.19,1.42.42,2.87.72,4.35.2.99.42,1.97.66,2.93,2.73.12,5.73.49,8.46,1.24-.58-2.31-.88-4.55-1.01-6.55Z"/>
      <path class="cls-3" d="M10.85,13.68C7.26,12.27,3.64,11.43.06,10.91c-.12,2.88-.1,6.5.32,10.51,3.53.63,6.54,1.66,9,3.07-.2-4.35.34-7.43.34-7.43l5.1-1.47c-1.19-.71-2.52-1.36-3.97-1.92Z"/>
      <path class="cls-1" d="M25.78,8.45c-.06.13,5.84-2.67,3.46-6.43,0,0,.28.6-.51,1.34,0,0-1.98-4.53-9.04-3.08,0,0,2.7.3,3.52,1.28,0,0-8.83-1.24-9.32,6.65,0,0,.73-1.75,2.17-2.29,0,0-1.74,7.54-7.06,3.99,0,0,5.8,4.6,8.53-1.27,0,0-.83,1.74.3,4.52,0,0,.91-6.76,6.26-4.64,0,0-2.38-4.05-6.85-.96,0,0,1.89-3.41,4.97-3.56,3.07-.15,2.5,3.48,2.5,3.48,0,0,2.88-2.17-.19-5.76,0,0,3.49,1.61,1.25,6.71Z"/>
      <path class="cls-9" d="M24.88,10.17c.68,0,1.33.09,1.96.25l.47-2.28-2.43-1.63-2.43,1.63.47,2.28c.63-.16,1.28-.25,1.96-.25Z"/>
      <path class="cls-10" d="M34.89,21.22c0-5.53-4.48-10.01-10.01-10.01s-10.01,4.48-10.01,10.01v6.5l1.39,2.3-.63,3.02c-.14.65-.08,1.33.16,1.95.78,2.04,2.92,6.71,6.93,9.4l-1.21-15.7s-3.77-1.4-4.09-4.66l5.55,2.43v4.09l1.92,4.53,1.92-4.53v-4.09l5.55-2.43c-.32,3.26-4.09,4.66-4.09,4.66l-1.21,15.7c4.01-2.69,6.14-7.35,6.93-9.4.24-.62.29-1.3.15-1.95l-.63-3.02,1.39-2.3v-6.5ZM33.05,34.75c-.02.06-.04.16-.08.28-.04.12-.08.27-.14.43-.03.08-.06.17-.09.26-.03.09-.07.19-.11.29-.07.2-.17.42-.26.65-.1.23-.21.46-.33.71-.12.24-.25.49-.39.74-.07.12-.14.25-.21.37-.07.12-.15.25-.22.37-.08.12-.16.24-.23.36-.08.12-.16.24-.24.35-.16.23-.34.45-.5.67-.08.11-.17.21-.25.31-.08.1-.17.2-.25.29-.17.18-.33.35-.48.51-.16.15-.3.28-.43.4-.13.12-.25.21-.35.29-.1.08-.18.14-.23.18-.05.04-.08.06-.08.06,0,0,.02-.03.06-.08.04-.05.1-.13.18-.23.04-.05.08-.1.13-.16.02-.03.05-.06.08-.09.02-.03.05-.07.08-.1.11-.14.23-.29.36-.46.13-.17.27-.35.42-.55.07-.1.14-.2.22-.3.07-.1.15-.21.23-.32.15-.22.31-.44.46-.67.08-.12.15-.23.23-.35.08-.12.15-.24.23-.36.08-.12.15-.24.22-.36.07-.12.15-.24.22-.36.07-.12.14-.24.21-.36.07-.12.13-.24.2-.35.13-.23.26-.46.38-.67.11-.22.23-.42.33-.61.1-.19.19-.36.27-.51.08-.15.15-.29.21-.4.12-.22.19-.35.19-.35,0,0,0,.03-.03.1ZM33.97,20.61s0,.1,0,.14c0,.04,0,.08,0,.12,0,.08-.01.14-.02.19,0,.1-.01.16-.01.16,0,0,0-.06-.02-.16,0-.05-.02-.12-.02-.19,0-.04-.01-.08-.02-.12,0-.04-.01-.09-.02-.14-.02-.1-.03-.2-.05-.32-.03-.11-.05-.24-.08-.37-.03-.13-.07-.27-.1-.41-.02-.07-.04-.15-.06-.22-.02-.07-.05-.15-.07-.23-.05-.16-.11-.32-.16-.48-.03-.08-.07-.16-.1-.25-.02-.04-.03-.08-.05-.13-.02-.04-.04-.08-.06-.13-.04-.08-.08-.17-.11-.26-.04-.09-.09-.17-.13-.26-.08-.18-.19-.35-.28-.52-.21-.35-.44-.69-.69-1.03-.26-.33-.54-.66-.84-.96-.3-.3-.63-.58-.96-.84-.34-.26-.68-.49-1.03-.69-.09-.05-.18-.1-.26-.15-.04-.02-.09-.05-.13-.07-.04-.02-.09-.04-.13-.07-.09-.04-.17-.09-.26-.13-.09-.04-.17-.08-.26-.11-.04-.02-.08-.04-.13-.06-.04-.02-.09-.03-.13-.05-.08-.03-.17-.07-.25-.1-.17-.06-.33-.12-.48-.16-.08-.02-.16-.05-.23-.07-.08-.02-.15-.05-.22-.06-.15-.04-.28-.07-.41-.1-.13-.03-.25-.05-.37-.08-.11-.02-.22-.04-.31-.05-.05,0-.09-.02-.14-.02-.04,0-.08-.01-.12-.02-.08,0-.14-.02-.19-.02-.1-.01-.16-.02-.16-.02,0,0,.06,0,.16-.01.05,0,.12,0,.19-.02.04,0,.08,0,.12,0,.04,0,.09,0,.14,0,.1,0,.21,0,.33,0,.12,0,.25.01.38.02.07,0,.14.01.21.02.07,0,.15.02.22.02.08,0,.16.02.24.03.08.01.16.03.25.04.08.01.17.04.26.05.09.02.17.04.26.06.09.03.18.05.27.08.05.01.09.03.14.04.05.01.09.03.14.05.09.03.19.07.28.1.09.04.19.08.28.11.05.02.1.04.14.06.05.02.09.04.14.07.1.05.19.09.29.14.19.1.38.2.57.32.09.06.19.11.28.18.09.06.18.13.28.19.37.27.72.57,1.04.89.32.33.62.68.89,1.04.06.09.13.19.19.28.07.09.12.19.18.28.12.19.22.38.32.57.05.1.09.19.14.29.02.05.05.09.07.14.02.05.04.1.06.14.04.1.08.19.11.28.03.1.07.19.1.28.02.05.03.09.05.14.01.05.03.09.04.14.03.09.05.18.08.27.02.09.04.18.06.26.02.09.04.17.05.26.01.08.03.17.04.25.01.08.03.16.03.24,0,.08.02.15.02.22,0,.07.02.14.02.21,0,.14.01.27.02.38,0,.12,0,.23,0,.33Z"/>
    </g>
  </g>
</svg>